HIERARCHY
ROOT Hips
{
	OFFSET 0.000000 89.005402 0.000000
	CHANNELS 6 Xposition Yposition Zposition Xrotation Yrotation Zrotation
	JOINT Spine
	{
		OFFSET 0.116900 10.681000 0.373400
		CHANNELS 3 Xrotation Yrotation Zrotation
		JOINT Spine1
		{
			OFFSET 0.000000 13.840401 0.053500
			CHANNELS 3 Xrotation Yrotation Zrotation
			JOINT Spine2
			{
				OFFSET 0.000000 14.712700 -0.366200
				CHANNELS 3 Xrotation Yrotation Zrotation
				JOINT Neck
				{
					OFFSET 0.000000 35.415497 -3.314200
					CHANNELS 3 Xrotation Yrotation Zrotation
					JOINT Head
					{
						OFFSET 0.000000 16.899200 1.218300
						CHANNELS 3 Xrotation Yrotation Zrotation
						JOINT HeadTop_End
						{
							OFFSET 0.000000 22.206207 2.192500
							CHANNELS 3 Xrotation Yrotation Zrotation
							End Site
							{
								OFFSET 0.000000 22.314178 0.000000
							}
						}
					}
				}
				JOINT LeftShoulder
				{
					OFFSET 12.896400 26.716293 -4.548400
					CHANNELS 3 Xrotation Yrotation Zrotation
					JOINT LeftArm
					{
						OFFSET 19.027000 -4.857010 -1.718400
						CHANNELS 3 Xrotation Yrotation Zrotation
						JOINT LeftForeArm
						{
							OFFSET 24.179897 0.000000 0.000000
							CHANNELS 3 Xrotation Yrotation Zrotation
							JOINT LeftHand
							{
								OFFSET 27.156403 0.000000 0.000000
								CHANNELS 3 Xrotation Yrotation Zrotation
								JOINT LeftHandIndex1
								{
									OFFSET 16.441200 0.000000 0.000000
									CHANNELS 3 Xrotation Yrotation Zrotation
									JOINT LeftHandIndex2
									{
										OFFSET 4.821899 0.000000 0.000000
										CHANNELS 3 Xrotation Yrotation Zrotation
										JOINT LeftHandIndex3
										{
											OFFSET 6.386497 0.000000 0.000000
											CHANNELS 3 Xrotation Yrotation Zrotation
											JOINT LeftHandIndex4
											{
												OFFSET 5.188988 0.000000 0.000000
												CHANNELS 3 Xrotation Yrotation Zrotation
												End Site
												{
													OFFSET -0.178703 5.185913 0.000177
												}
											}
										}
									}
								}
								JOINT LeftHandThumb1
								{
									OFFSET 6.534897 -5.032593 5.900300
									CHANNELS 3 Xrotation Yrotation Zrotation
									JOINT LeftHandThumb2
									{
										OFFSET 3.818176 -2.204422 2.204423
										CHANNELS 3 Xrotation Yrotation Zrotation
										JOINT LeftHandThumb3
										{
											OFFSET 3.252098 -1.877594 1.877601
											CHANNELS 3 Xrotation Yrotation Zrotation
											JOINT LeftHandThumb4
											{
												OFFSET 5.251778 -3.032120 3.032117
												CHANNELS 3 Xrotation Yrotation Zrotation
												End Site
												{
													OFFSET 0.000023 6.780014 0.000000
												}
											}
										}
									}
								}
							}
						}
					}
				}
				JOINT RightShoulder
				{
					OFFSET -12.896300 26.716293 -4.548400
					CHANNELS 3 Xrotation Yrotation Zrotation
					JOINT RightArm
					{
						OFFSET -19.027000 -4.857010 -1.718400
						CHANNELS 3 Xrotation Yrotation Zrotation
						JOINT RightForeArm
						{
							OFFSET -24.179897 0.000000 0.000000
							CHANNELS 3 Xrotation Yrotation Zrotation
							JOINT RightHand
							{
								OFFSET -27.156403 0.000000 0.000000
								CHANNELS 3 Xrotation Yrotation Zrotation
								JOINT RightHandThumb1
								{
									OFFSET -6.591202 -4.852203 5.988100
									CHANNELS 3 Xrotation Yrotation Zrotation
									JOINT RightHandThumb2
									{
										OFFSET -3.818176 -2.204422 2.204423
										CHANNELS 3 Xrotation Yrotation Zrotation
										JOINT RightHandThumb3
										{
											OFFSET -3.252098 -1.877594 1.877601
											CHANNELS 3 Xrotation Yrotation Zrotation
											JOINT RightHandThumb4
											{
												OFFSET -5.251778 -3.032120 3.032117
												CHANNELS 3 Xrotation Yrotation Zrotation
												End Site
												{
													OFFSET -0.000023 6.780014 0.000000
												}
											}
										}
									}
								}
								JOINT RightHandIndex1
								{
									OFFSET -16.029404 0.000000 0.000000
									CHANNELS 3 Xrotation Yrotation Zrotation
									JOINT RightHandIndex2
									{
										OFFSET -5.213303 0.000000 0.000000
										CHANNELS 3 Xrotation Yrotation Zrotation
										JOINT RightHandIndex3
										{
											OFFSET -6.386528 0.000000 0.000000
											CHANNELS 3 Xrotation Yrotation Zrotation
											JOINT RightHandIndex4
											{
												OFFSET -5.189026 0.000000 0.000000
												CHANNELS 3 Xrotation Yrotation Zrotation
												End Site
												{
													OFFSET 0.236702 5.183624 0.001972
												}
											}
										}
									}
								}
							}
						}
					}
				}
			}
		}
	}
	JOINT LeftUpLeg
	{
		OFFSET 14.073000 -7.904099 -1.463000
		CHANNELS 3 Xrotation Yrotation Zrotation
		JOINT LeftLeg
		{
			OFFSET -0.109806 -34.073280 4.093200
			CHANNELS 3 Xrotation Yrotation Zrotation
			JOINT LeftFoot
			{
				OFFSET 0.109806 -29.899420 -6.319000
				CHANNELS 3 Xrotation Yrotation Zrotation
				JOINT LeftToeBase
				{
					OFFSET 1.551100 -14.988700 20.535801
					CHANNELS 3 Xrotation Yrotation Zrotation
					JOINT LeftToe_End
					{
						OFFSET 0.221200 0.570800 13.248301
						CHANNELS 3 Xrotation Yrotation Zrotation
						End Site
						{
							OFFSET 0.000000 13.262435 0.000000
						}
					}
				}
			}
		}
	}
	JOINT RightUpLeg
	{
		OFFSET -13.839300 -7.904099 -1.463000
		CHANNELS 3 Xrotation Yrotation Zrotation
		JOINT RightLeg
		{
			OFFSET 0.109694 -34.073219 4.093300
			CHANNELS 3 Xrotation Yrotation Zrotation
			JOINT RightFoot
			{
				OFFSET -0.109694 -29.899384 -6.319200
				CHANNELS 3 Xrotation Yrotation Zrotation
				JOINT RightToeBase
				{
					OFFSET -1.551100 -14.988700 20.535801
					CHANNELS 3 Xrotation Yrotation Zrotation
					JOINT RightToe_End
					{
						OFFSET -0.221200 0.570900 13.248299
						CHANNELS 3 Xrotation Yrotation Zrotation
						End Site
						{
							OFFSET 0.000000 13.262440 0.000000
						}
					}
				}
			}
		}
	}
}
MOTION
Frames: 9
Frame Time: 0.033333
-0.226315 85.402283 0.974463 -8.915705 -2.251117 0.554949 4.535765 1.806631 -0.297319 0.918584 0.252940 -1.278356 0.922880 0.242748 -1.276707 0.867610 -1.161638 3.572557 0.602087 -0.594050 -2.119109 -0.000000 0.000000 -0.000000 0.770866 -8.164709 -5.263160 -0.803005 0.262090 -77.155524 0.000003 -9.782839 0.000040 3.404199 -3.451494 -0.598938 -1.440579 -4.212291 -16.088639 0.946356 3.488856 -30.344427 0.229212 1.765223 -14.795810 -0.000000 -0.000000 0.000001 -7.561016 11.515153 -3.096609 5.313238 16.276303 9.352330 -2.269568 13.787429 1.605203 -0.000000 -0.000002 -0.000001 0.891093 -4.304700 14.147881 2.296297 19.794949 69.850603 -0.000003 11.477189 0.000028 1.844174 3.162800 -3.812799 4.569136 -20.268638 4.603108 0.330663 -9.968752 -0.252410 -0.832239 -12.682636 -6.011411 -0.000002 0.000001 0.000002 0.714478 -3.158062 28.510912 0.559781 -2.738017 23.105499 0.161542 -1.493085 12.349865 0.000001 0.000001 0.000002 3.744878 4.109651 2.709991 21.178089 -2.596550 0.058549 -16.059812 0.448136 -2.563649 -0.150223 0.000001 0.000001 0.000000 -0.000000 0.000000 1.709305 -6.456527 -6.938006 23.331393 -6.511802 -0.716917 -15.344252 -1.952653 7.668929 -0.002545 0.000009 -0.000003 0.000000 -0.000000 -0.000000 
-0.227046 85.403564 0.969287 -8.924615 -2.270092 0.577559 4.545688 1.833635 -0.319453 0.917435 0.256765 -1.279514 0.921805 0.246553 -1.277893 0.873285 -1.153882 3.568256 0.645101 -0.560328 -2.118947 -0.000000 0.000000 0.000000 0.771135 -8.250623 -5.339293 -0.773770 0.286047 -77.074307 -0.000002 -9.807493 -0.000001 3.357795 -3.416498 -0.607347 -1.444456 -4.215734 -16.110661 0.946804 3.489607 -30.351769 0.229179 1.765119 -14.794924 -0.000000 0.000000 -0.000000 -7.566776 11.516916 -3.098625 5.309901 16.281544 9.353986 -2.270429 13.787524 1.606285 -0.000002 -0.000001 -0.000001 0.890928 -4.293704 14.154497 2.296516 19.776137 69.846539 0.000009 11.472663 -0.000038 1.896925 3.186695 -3.811762 4.571655 -20.265328 4.601766 0.331791 -9.968714 -0.249904 -0.833147 -12.682810 -6.012752 -0.000000 0.000000 0.000004 0.716414 -3.160677 28.523666 0.559937 -2.738369 23.108605 0.161703 -1.493786 12.355742 0.000001 -0.000001 -0.000002 3.775253 4.082838 2.674616 21.139582 -2.547541 0.063029 -16.038872 0.450153 -2.576701 -0.144072 0.000001 -0.000001 0.000000 -0.000000 -0.000000 1.690701 -6.482627 -6.974415 23.358689 -6.464775 -0.712898 -15.353589 -1.950012 7.656791 -0.002626 0.000002 0.000001 -0.000000 0.000000 -0.000000 
-0.229454 85.404495 0.964499 -8.916685 -2.280916 0.590365 4.528405 1.860002 -0.325267 0.922362 0.260247 -1.279596 0.926796 0.250073 -1.277964 0.884435 -1.141526 3.556872 0.656454 -0.518083 -2.107456 0.000000 0.000000 0.000000 0.771215 -8.359353 -5.431544 -0.740680 0.314342 -76.977475 -0.000000 -9.835166 -0.000011 3.319242 -3.384380 -0.618087 -1.449360 -4.215170 -16.150942 0.947669 3.491095 -30.366017 0.229155 1.765005 -14.793922 -0.000000 0.000000 0.000001 -7.571815 11.515000 -3.105235 5.306785 16.288109 9.364064 -2.271833 13.787963 1.607479 -0.000001 0.000001 0.000000 0.889560 -4.268804 14.149101 2.294007 19.735442 69.856006 -0.000004 11.468875 0.000002 1.953560 3.220628 -3.802851 4.587176 -20.254315 4.588659 0.327525 -9.972528 -0.248341 -0.835547 -12.683181 -6.015605 -0.000001 0.000000 0.000002 0.722798 -3.171481 28.558602 0.560436 -2.739562 23.119174 0.161913 -1.494728 12.363695 0.000000 -0.000002 -0.000004 3.775595 4.079468 2.659132 21.118578 -2.526722 0.063299 -16.024250 0.450996 -2.582801 -0.138635 -0.000000 0.000000 -0.000000 -0.000000 -0.000000 1.665751 -6.480927 -6.987309 23.373987 -6.457885 -0.717068 -15.355141 -1.947880 7.655887 -0.002689 -0.000007 0.000000 -0.000000 -0.000002 -0.000000 
-0.233689 85.404839 0.960099 -8.899339 -2.278802 0.591912 4.488425 1.881873 -0.325073 0.936244 0.262834 -1.273749 0.940712 0.252806 -1.272055 0.896771 -1.125320 3.541570 0.646637 -0.463418 -2.094455 -0.000000 -0.000000 0.000000 0.771132 -8.460722 -5.514814 -0.717026 0.330292 -76.895035 -0.000003 -9.859285 -0.000008 3.296136 -3.361464 -0.626942 -1.454015 -4.209117 -16.204581 0.948664 3.492774 -30.382191 0.229133 1.764903 -14.793066 -0.000001 0.000001 0.000003 -7.575310 11.504197 -3.120179 5.305544 16.293778 9.383781 -2.272815 13.788648 1.607495 -0.000001 -0.000000 -0.000001 0.885595 -4.229374 14.107805 2.280236 19.683092 69.900511 -0.000004 11.465695 0.000019 1.986799 3.264138 -3.819550 4.614797 -20.236100 4.564110 0.316841 -9.981059 -0.247461 -0.840108 -12.683873 -6.020510 -0.000003 -0.000001 0.000000 0.733191 -3.190528 28.615448 0.561312 -2.741584 23.137370 0.162117 -1.495679 12.371666 -0.000000 -0.000000 0.000002 3.751501 4.093700 2.666840 21.118721 -2.532667 0.056472 -16.017888 0.450665 -2.581310 -0.133048 -0.000001 0.000001 -0.000000 -0.000000 -0.000000 1.644107 -6.459164 -6.975537 23.376358 -6.487902 -0.729048 -15.350562 -1.946610 7.665211 -0.002705 0.000007 0.000001 0.000000 0.000002 0.000000 
-0.238433 85.404449 0.955135 -8.886920 -2.263765 0.587862 4.446501 1.898881 -0.329806 0.956426 0.264649 -1.262554 0.960895 0.254827 -1.260764 0.909100 -1.105739 3.532778 0.643775 -0.380554 -2.091383 -0.000000 -0.000000 -0.000000 0.771863 -8.540434 -5.564162 -0.710841 0.326970 -76.852339 0.000003 -9.873459 -0.000008 3.287637 -3.346958 -0.631015 -1.455046 -4.202516 -16.231629 0.949020 3.493392 -30.388222 0.229092 1.764759 -14.791765 -0.000001 -0.000000 -0.000000 -7.578903 11.481826 -3.144804 5.308018 16.292207 9.398114 -2.270780 13.788910 1.603656 -0.000001 -0.000002 -0.000001 0.879894 -4.179143 14.040900 2.260793 19.635935 69.968410 -0.000000 11.464756 -0.000017 1.968213 3.317617 -3.903634 4.648757 -20.212645 4.540638 0.307071 -9.988545 -0.246544 -0.844897 -12.684619 -6.025420 0.000001 0.000000 0.000001 0.739953 -3.204085 28.658483 0.562030 -2.743263 23.152396 0.162192 -1.496026 12.374623 -0.000001 0.000002 0.000006 3.721669 4.103253 2.686201 21.133811 -2.550500 0.044718 -16.016975 0.449708 -2.575485 -0.135225 -0.000000 -0.000000 -0.000000 -0.000000 -0.000000 1.633687 -6.448297 -6.957521 23.373676 -6.518754 -0.737123 -15.346358 -1.945860 7.671592 -0.002658 0.000003 0.000003 -0.000000 -0.000002 -0.000000 
-0.241308 85.403557 0.947535 -8.897025 -2.240219 0.584448 4.433104 1.912362 -0.336565 0.978697 0.266146 -1.253615 0.983167 0.256429 -1.251724 0.932809 -1.079546 3.543325 0.666907 -0.235914 -2.103867 -0.000000 0.000000 0.000000 0.775014 -8.613295 -5.560407 -0.725526 0.315274 -76.862031 0.000006 -9.872478 0.000004 3.280309 -3.332809 -0.630295 -1.448335 -4.204337 -16.172020 0.948040 3.491712 -30.372079 0.229032 1.764528 -14.789776 0.000001 -0.000001 -0.000004 -7.587591 11.450077 -3.174711 5.314562 16.277043 9.379849 -2.263154 13.787839 1.593986 -0.000000 -0.000002 0.000001 0.874772 -4.113998 13.993304 2.254955 19.608688 70.014152 -0.000000 11.472368 -0.000005 1.882279 3.380605 -4.075762 4.682102 -20.187239 4.534080 0.312038 -9.984153 -0.244800 -0.845539 -12.684751 -6.025770 0.000001 -0.000001 0.000001 0.729652 -3.187229 28.624845 0.561656 -2.742399 23.144677 0.161994 -1.495080 12.366641 0.000002 0.000001 0.000001 3.710808 4.126304 2.707429 21.152739 -2.582392 0.028086 -16.016857 0.447383 -2.561593 -0.146165 -0.000000 0.000001 0.000000 -0.000000 -0.000000 1.649252 -6.433204 -6.937861 23.370636 -6.562345 -0.750838 -15.343262 -1.948005 7.686329 -0.002541 0.000005 0.000002 0.000000 -0.000000 -0.000000 
-0.240675 85.402771 0.934320 -8.943788 -2.217016 0.586154 4.470017 1.925577 -0.338100 1.004703 0.267923 -1.254952 1.009205 0.258059 -1.252962 0.992078 -1.038145 3.581944 0.710760 0.021359 -2.135574 0.000000 -0.000000 -0.000000 0.781908 -8.716057 -5.498272 -0.762666 0.316797 -76.920498 -0.000001 -9.857469 -0.000012 3.255109 -3.317863 -0.621452 -1.431170 -4.218239 -15.990212 0.945699 3.487738 -30.333693 0.228966 1.764279 -14.787708 -0.000000 0.000000 0.000002 -7.606666 11.417802 -3.200188 5.323724 16.247519 9.314857 -2.250398 13.785303 1.579641 0.000001 0.000001 -0.000001 0.871957 -4.018106 14.012704 2.277577 19.605961 69.986763 -0.000003 11.496020 0.000012 1.737425 3.454041 -4.307000 4.714237 -20.162134 4.544985 0.339669 -9.962621 -0.241472 -0.838756 -12.683851 -6.018427 0.000001 0.000001 -0.000001 0.693344 -3.122030 28.474808 0.559508 -2.737377 23.099756 0.161466 -1.492722 12.346713 -0.000000 -0.000002 0.000001 3.740357 4.138407 2.711444 21.165378 -2.597067 0.022368 -16.012837 0.445929 -2.553638 -0.170614 0.000000 0.000001 0.000000 -0.000000 0.000000 1.694717 -6.435195 -6.931759 23.374518 -6.586006 -0.763935 -15.343323 -1.951438 7.699360 -0.002365 0.000000 0.000002 0.000000 0.000000 0.000000 
-0.236835 85.403305 0.912152 -9.034369 -2.205381 0.592360 4.561697 1.942550 -0.334801 1.043368 0.270469 -1.268488 1.047962 0.260171 -1.266359 1.118342 -0.968338 3.652353 0.747582 0.457280 -2.197335 -0.000000 0.000000 -0.000000 0.793374 -8.878750 -5.380154 -0.822440 0.342286 -77.018579 0.000003 -9.842763 -0.000013 3.196862 -3.318666 -0.594600 -1.407280 -4.233073 -15.746863 0.943279 3.483596 -30.293839 0.228937 1.764168 -14.786741 -0.000000 0.000000 0.000001 -7.637332 11.399166 -3.209362 5.332731 16.216631 9.235824 -2.238463 13.782899 1.566787 -0.000000 -0.000001 0.000000 0.871907 -3.866762 14.126169 2.323381 19.619688 69.851600 -0.000002 11.537660 -0.000001 1.561041 3.540995 -4.530610 4.755345 -20.136893 4.544820 0.376849 -9.936970 -0.235356 -0.827791 -12.682342 -6.006733 -0.000000 0.000000 0.000000 0.641552 -3.025710 28.259056 0.556180 -2.729567 23.029892 0.160902 -1.490115 12.324898 0.000001 -0.000001 -0.000000 3.821859 4.179667 2.706789 21.163076 -2.609598 0.013327 -16.001076 0.443477 -2.540513 -0.220513 -0.000000 0.000000 -0.000000 -0.000000 0.000000 1.774563 -6.435537 -6.935490 23.382615 -6.599625 -0.781371 -15.340187 -1.955530 7.714435 -0.002138 0.000003 -0.000000 0.000000 -0.000000 -0.000000 
-0.232412 85.405014 0.877988 -9.167033 -2.213755 0.596806 4.699123 1.965404 -0.333744 1.104624 0.273866 -1.288469 1.109342 0.262932 -1.286121 1.341139 -0.858400 3.751679 0.739270 1.123285 -2.306516 0.000000 -0.000000 -0.000000 0.809703 -9.096980 -5.207237 -0.893744 0.366433 -77.152847 0.000002 -9.863603 0.000002 3.106524 -3.364900 -0.540692 -1.391527 -4.218864 -15.649415 0.943175 3.483413 -30.292067 0.228970 1.764309 -14.787998 -0.000003 0.000000 0.000001 -7.676806 11.409660 -3.195161 5.336235 16.218315 9.234107 -2.237998 13.783648 1.565496 0.000001 0.000002 0.000001 0.873575 -3.628549 14.328933 2.369202 19.628024 69.601677 0.000009 11.591944 -0.000001 1.383374 3.647089 -4.686483 4.818999 -20.111007 4.484357 0.384271 -9.940162 -0.226444 -0.825057 -12.682084 -6.003430 0.000001 -0.000000 0.000000 0.612499 -2.971316 28.160313 0.554374 -2.725329 22.992088 0.160870 -1.490000 12.323978 0.000003 -0.000001 -0.000003 3.950789 4.174293 2.684117 21.152263 -2.561344 0.023548 -15.983413 0.445285 -2.552465 -0.276648 0.000001 0.000001 -0.000000 0.000000 -0.000000 1.876924 -6.480485 -6.956380 23.396014 -6.544770 -0.784165 -15.333104 -1.954097 7.701744 -0.001927 -0.000012 -0.000001 -0.000000 -0.000002 -0.000000 
